<?xml version="1.0" encoding="utf-8"?>
<svg xmlns="http://www.w3.org/2000/svg" height="256" width="256" viewBox="0 0 256 256">
  <g>
    <path id="path1" transform="rotate(0,128,128) translate(0,0.00402819354020778) scale(7.99974823790374,7.99974823790374)  " fill="#444444" d="M13.003009,26L15.003009,26 15.003009,30 19,30 19,28 21,28 21,30 22.998977,30 22.998977,32 15.001986,32 15.001986,30 13.003009,30z M4,25L7,25 7,28 4,28z M2,23L2,30 9,30 9,23z M0,21L11,21 11,32 0,32z M2,16L4,16 4,19 2,19z M19,14.5C16.518982,14.5 14.5,16.518982 14.5,19 14.5,21.481018 16.518982,23.5 19,23.5 21.481018,23.5 23.5,21.481018 23.5,19 23.5,16.518982 21.481018,14.5 19,14.5z M0,13L2,13 2,16 0,16z M4,12.996991L8,12.996991 8,19 6,19 6,14.996994 4,14.996994z M19,12.5C22.583984,12.5 25.5,15.416016 25.5,19 25.5,20.343994 25.089935,21.594055 24.388355,22.631634L24.232126,22.851164 31.705114,30.249027C32.097124,30.638016 32.100124,31.271997 31.711115,31.662987 31.516109,31.860981 31.259104,31.959978 31.001097,31.959978 30.747091,31.959978 30.492085,31.862982 30.297081,31.670986L22.81132,24.260481 22.631634,24.388355C21.594055,25.089935 20.343994,25.5 19,25.5 15.416016,25.5 12.5,22.583984 12.5,19 12.5,15.416016 15.416016,12.5 19,12.5z M25,4L28,4 28,7 25,7z M4,4L7,4 7,7 4,7z M23,2L23,9 30,9 30,2z M2,2L2,9 9,9 9,2z M13.003982,0.002986908L18.997001,0.002986908 18.997001,2.0030041 15.003988,2.0030041 15.003988,4.0029869 18.997018,4.0029869 18.997018,8.9970303 18.996991,10.00301 14.003971,10.00301 14.003971,8.0030093 16.997012,8.0030093 16.997012,6.0030041 13.003999,6.0030041 13.003999,4.9970298z M21,0L32,0 32,11 21,11z M0,0L11,0 11,11 0,11z" />
  </g>
</svg>

